<svg xmlns="http://www.w3.org/2000/svg" xmlns:xlink="http://www.w3.org/1999/xlink" version="1.1" width="1000" height="1000" viewBox="0 0 1000 1000" xml:space="preserve">
<g transform="matrix(1.4903 0 0 1.4903 499.9965 499.996)" id="819159">
<g style="" vector-effect="non-scaling-stroke">
		<g transform="matrix(1 0 0 1 -0.099 -0.4229)" id="Shape">
<path style="stroke: none; stroke-width: 1; stroke-dasharray: none; stroke-linecap: butt; stroke-dashoffset: 0; stroke-linejoin: miter; stroke-miterlimit: 4; is-custom-font: none; font-file-url: none; fill: rgb(103,58,183); fill-rule: nonzero; opacity: 1;" transform=" translate(-264.9844, -304.1132)" d="M 292.315801 -0.00404679169 C 256.350687 -0.00404679169 221.693395 7.67666525 190.959569 22.39803 C 109.874584 59.5214716 53.6382233 139.528889 53.6382233 232.337493 L 53.6382233 270.741053 L 5.2487965 361.629479 C -7.17551578 384.671615 4.59488532 403.233336 30.7513322 403.233336 L 53.6382233 403.233336 L 53.6382233 489.001287 C 53.6382233 515.883779 75.8712031 537.645796 103.335472 537.645796 L 171.996145 527.404847 L 171.996145 595.251137 C 171.996145 603.571908 179.84308 609.332442 188.997836 608.052323 L 435.522348 565.168348 C 444.677104 563.24817 452.524038 554.927398 452.524038 545.326508 L 452.524038 403.233336 C 499.605643 360.989419 529.685557 300.183782 529.685557 232.337493 C 529.031646 104.325625 423.098036 -0.00404679169 292.315801 -0.00404679169 Z M 292.315801 401.313158 C 196.190859 401.313158 118.375429 324.506037 118.375429 231.057374 C 118.375429 136.968651 196.84477 60.8015902 292.315801 60.8015902 C 388.440744 60.8015902 466.256173 137.608711 466.256173 231.057374 C 466.256173 325.146096 388.440744 401.313158 292.315801 401.313158 Z" stroke-linecap="round"/>
</g>
		<g transform="matrix(1 0 0 1 -0.099 -0.4229)" id="Shape">
<path style="stroke: none; stroke-width: 1; stroke-dasharray: none; stroke-linecap: butt; stroke-dashoffset: 0; stroke-linejoin: miter; stroke-miterlimit: 4; is-custom-font: none; font-file-url: none; fill: rgb(103,58,183); fill-rule: nonzero; opacity: 1;" transform=" translate(-264.9844, -304.1132)" d="M 292.315801 -0.00404679169 C 256.350687 -0.00404679169 221.693395 7.67666525 190.959569 22.39803 C 109.874584 59.5214716 53.6382233 139.528889 53.6382233 232.337493 L 53.6382233 270.741053 L 5.2487965 361.629479 C -7.17551578 384.671615 4.59488532 403.233336 30.7513322 403.233336 L 53.6382233 403.233336 L 53.6382233 489.001287 C 53.6382233 515.883779 75.8712031 537.645796 103.335472 537.645796 L 171.996145 527.404847 L 171.996145 595.251137 C 171.996145 603.571908 179.84308 609.332442 188.997836 608.052323 L 435.522348 565.168348 C 444.677104 563.24817 452.524038 554.927398 452.524038 545.326508 L 452.524038 403.233336 C 499.605643 360.989419 529.685557 300.183782 529.685557 232.337493 C 529.031646 104.325625 423.098036 -0.00404679169 292.315801 -0.00404679169 Z M 292.315801 401.313158 C 196.190859 401.313158 118.375429 324.506037 118.375429 231.057374 C 118.375429 136.968651 196.84477 60.8015902 292.315801 60.8015902 C 388.440744 60.8015902 466.256173 137.608711 466.256173 231.057374 C 466.256173 325.146096 388.440744 401.313158 292.315801 401.313158 Z" stroke-linecap="round"/>
</g>
		<g transform="matrix(0.9962 0.0872 -0.0872 0.9962 -56.48 -124.3384)" id="Oval">
<ellipse style="stroke: none; stroke-width: 1; stroke-dasharray: none; stroke-linecap: butt; stroke-dashoffset: 0; stroke-linejoin: miter; stroke-miterlimit: 4; is-custom-font: none; font-file-url: none; fill: rgb(103,58,183); fill-rule: evenodd; opacity: 1;" cx="0" cy="0" rx="27.2224899" ry="28.1729288"/>
</g>
		<g transform="matrix(0.9962 0.0872 -0.0872 0.9962 -19.7701 -121.6923)" id="Rectangle-Copy">
<rect style="stroke: none; stroke-width: 1; stroke-dasharray: none; stroke-linecap: butt; stroke-dashoffset: 0; stroke-linejoin: miter; stroke-miterlimit: 4; is-custom-font: none; font-file-url: none; fill: rgb(103,58,183); fill-rule: evenodd; opacity: 1;" x="-34.7843" y="-10.7057" rx="0" ry="0" width="69.5686" height="21.4114"/>
</g>
		<g transform="matrix(0.9962 0.0872 -0.0872 0.9962 128.4285 -109.2922)" id="Oval">
<ellipse style="stroke: none; stroke-width: 1; stroke-dasharray: none; stroke-linecap: butt; stroke-dashoffset: 0; stroke-linejoin: miter; stroke-miterlimit: 4; is-custom-font: none; font-file-url: none; fill: rgb(103,58,183); fill-rule: evenodd; opacity: 1;" cx="0" cy="0" rx="27.2224899" ry="28.1729288"/>
</g>
		<g transform="matrix(0.9962 0.0872 -0.0872 0.9962 99.7285 -111.2378)" id="Combined-Shape">
<path style="stroke: none; stroke-width: 1; stroke-dasharray: none; stroke-linecap: butt; stroke-dashoffset: 0; stroke-linejoin: miter; stroke-miterlimit: 4; is-custom-font: none; font-file-url: none; fill: rgb(103,58,183); fill-rule: evenodd; opacity: 1;" transform=" translate(-24.8412, -28.7361)" d="M 49.5685852 18.0306744 L 49.5685852 39.4421003 L 0.113825964 39.4419469 C 1.13829762 35.7252353 1.68687567 31.8003652 1.68687567 27.7426802 C 1.68687567 24.4010413 1.31482608 21.1494784 0.611323086 18.0300728 L 49.5685852 18.0306744 Z" stroke-linecap="round"/>
</g>
		<g transform="matrix(-0.0872 0.9962 -0.9962 -0.0872 30.6452 -52.9632)" id="Rectangle">
<path style="stroke: none; stroke-width: 1; stroke-dasharray: none; stroke-linecap: butt; stroke-dashoffset: 0; stroke-linejoin: miter; stroke-miterlimit: 4; is-custom-font: none; font-file-url: none; fill: rgb(103,58,183); fill-rule: evenodd; opacity: 1;" transform=" translate(-120.2369, -95.0637)" d="M 75.8571277 83.6369833 L 164.616621 83.6369833 C 167.378045 83.6369833 169.616621 85.8755596 169.616621 88.6369833 L 169.616621 101.490432 C 169.616621 104.251855 167.378045 106.490432 164.616621 106.490432 L 75.8571277 106.490432 C 73.0957039 106.490432 70.8571277 104.251855 70.8571277 101.490432 L 70.8571277 88.6369833 C 70.8571277 85.8755596 73.0957039 83.6369833 75.8571277 83.6369833 Z" stroke-linecap="round"/>
</g>
		<g transform="matrix(0.9962 0.0872 -0.0872 0.9962 24.1561 11.3757)" id="Oval">
<ellipse style="stroke: none; stroke-width: 1; stroke-dasharray: none; stroke-linecap: butt; stroke-dashoffset: 0; stroke-linejoin: miter; stroke-miterlimit: 4; is-custom-font: none; font-file-url: none; fill: rgb(103,58,183); fill-rule: evenodd; opacity: 1;" cx="0" cy="0" rx="27.2224899" ry="28.1729288"/>
</g>
		<g transform="matrix(0.9962 0.0872 -0.0872 0.9962 36.2198 -119.6218)" id="Combined-Shape">
<path style="stroke: none; stroke-width: 1; stroke-dasharray: none; stroke-linecap: butt; stroke-dashoffset: 0; stroke-linejoin: miter; stroke-miterlimit: 4; is-custom-font: none; font-file-url: none; fill: rgb(103,58,183); fill-rule: evenodd; opacity: 1;" transform=" translate(-119.9806, -28.1729)" d="M 119.980603 1.4281909e-12 C 135.015169 1.4281909e-12 147.203093 12.6134499 147.203093 28.1729288 C 147.203093 43.7324077 135.015169 56.3458576 119.980603 56.3458576 C 104.946037 56.3458576 92.7581136 43.7324077 92.7581136 28.1729288 C 92.7581136 12.6134499 104.946037 1.4281909e-12 119.980603 1.4281909e-12 Z M 119.980603 16.3402987 C 113.298574 16.3402987 107.881719 21.8902166 107.881719 28.7363874 C 107.881719 35.5825581 113.298574 41.1324761 119.980603 41.1324761 C 126.662633 41.1324761 132.079488 35.5825581 132.079488 28.7363874 C 132.079488 21.8902166 126.662633 16.3402987 119.980603 16.3402987 Z" stroke-linecap="round"/>
</g>
		<g transform="matrix(0.9962 0.0872 -0.0872 0.9962 -20.5 -120.5)" id="Rectangle">
<rect style="stroke: none; stroke-width: 1; stroke-dasharray: none; stroke-linecap: butt; stroke-dashoffset: 0; stroke-linejoin: miter; stroke-miterlimit: 4; is-custom-font: none; font-file-url: none; fill: rgb(103,58,183); fill-rule: evenodd; opacity: 1;" x="-35" y="-10.5" rx="10" ry="10" width="70" height="21"/>
</g>
		<g transform="matrix(1 0 0 1 37.4926 -158.7914)" id="Shape">
<path style="stroke: none; stroke-width: 1; stroke-dasharray: none; stroke-linecap: butt; stroke-dashoffset: 0; stroke-linejoin: miter; stroke-miterlimit: 4; is-custom-font: none; font-file-url: none; fill: rgb(103,58,183); fill-rule: nonzero; opacity: 1;" transform=" translate(-55.9926, -25.2085)" d="M 103.397499 34.6993322 C 106.355582 33.6485484 109.679867 35.2076584 110.79625 38.1543646 C 111.635067 40.3800697 110.975479 42.7693085 109.352428 44.2695473 C 108.811412 44.7696255 108.148942 45.1685381 107.40789 45.4155506 L 107.40789 45.4155506 L 96.6207751 49.2217085 C 93.6626883 50.2724966 90.3384025 48.7133786 89.2363145 45.7497713 C 88.4852512 43.7700338 88.9161817 41.6512839 90.18811 40.1466667 C 90.8026385 39.4197152 91.6223155 38.8348454 92.610384 38.5054901 L 92.610384 38.5054901 Z M 1.49170713 30.9842927 C 2.93443172 28.1827393 6.37165811 27.1264014 9.13186884 28.621763 L 9.13186884 28.621763 L 19.1782985 34.0920048 C 21.2378276 35.2251515 22.3655521 37.471927 22.1648666 39.7376102 C 22.104187 40.4625182 21.9116249 41.2141391 21.5403121 41.9261588 C 20.0984572 44.7502836 16.6603555 45.7840503 13.899281 44.266123 L 13.899281 44.266123 L 3.85372096 38.8184525 C 1.99766978 37.7919183 0.905111636 35.8829519 0.828597299 33.8970582 C 0.79034013 32.9041114 0.995467863 31.903561 1.49170713 30.9842927 Z M 79.6791446 13.3904533 C 81.4444278 10.7017016 85.1133968 9.98989742 87.8742563 11.7637683 C 90.6351157 13.5376392 91.4696808 17.1429945 89.7043977 19.8317463 L 89.7043977 19.8317463 L 83.3394274 29.5264094 C 81.5741411 32.215166 77.9051752 32.9269653 75.1443158 31.1530944 C 72.3834563 29.3792235 71.5488881 25.773873 73.3141744 23.0851164 L 73.3141744 23.0851164 Z M 23.9894332 8.96555894 C 26.8931502 7.48997652 30.5017723 8.51693242 32.0105183 11.2625099 L 32.0105183 11.2625099 L 37.5303351 21.2553888 C 37.9196324 21.9310185 38.1433016 22.6687932 38.2042649 23.402262 C 38.3881243 25.5805237 37.2199341 27.811709 35.0290667 28.9513166 C 32.125344 30.4268932 28.5167276 29.3999431 27.0079818 26.6543599 L 27.0079818 26.6543599 L 21.4881651 16.6614811 C 20.9691058 15.7606454 20.7561021 14.7791992 20.7987878 13.8045197 C 20.8841591 11.8551605 22.0368272 9.97840418 23.9894332 8.96555894 Z M 55.7491674 0.867565593 L 55.9720098 0.870281097 C 59.2521393 0.968837487 61.8243964 3.6293974 61.696063 6.84329552 L 61.696063 6.84329552 L 61.2333392 18.4314457 C 61.1050055 21.6453496 58.3266917 24.1451378 55.0465622 24.0465814 C 51.7664327 23.948025 49.1941753 21.2874709 49.322509 18.073567 L 49.322509 18.073567 L 49.7852328 6.48541684 C 49.9135662 3.27151871 52.6918803 0.771724707 55.9720098 0.870281097 Z" stroke-linecap="round"/>
</g>
</g>
</g>
</svg>